<?xml version="1.0" encoding="utf-8"?>
<!-- Svg Vector Icons : http://www.onlinewebfonts.com/icon -->
<!DOCTYPE svg PUBLIC "-//W3C//DTD SVG 1.1//EN" "http://www.w3.org/Graphics/SVG/1.1/DTD/svg11.dtd">
<svg version="1.1" xmlns="http://www.w3.org/2000/svg" xmlns:xlink="http://www.w3.org/1999/xlink" x="0px" y="0px" viewBox="0 0 1000 1000" enable-background="new 0 0 1000 1000" xml:space="preserve">
<metadata> Svg Vector Icons : http://www.onlinewebfonts.com/icon </metadata>
<g><g transform="translate(0.000000,511.000000) scale(0.100000,-0.100000)"><path d="M5395.8,4975.5c-214.5-58.7-395.8-137.9-577.1-255.4c-219.6-140.4-801.8-699.6-766-735.4c15.3-15.3,109.8,12.8,263,79.1c717.5,309,1271.6,372.8,1455.5,168.5c137.9-155.8,224.7-436.6,301.3-983.1c43.4-298.7,48.5-388.1,25.5-480c-28.1-112.3-28.1-114.9,56.2-178.7c158.3-117.5,367.7-347.3,449.4-492.8c79.2-137.9,89.4-145.5,222.1-173.6c242.6-51.1,234.9-56.2,408.6,352.4l153.2,365.1l166,114.9c283.4,199.2,518.3,298.7,725.2,309c171.1,7.7,196.6,0,487.7-127.7c204.3-89.4,303.9-148.1,298.8-171.1c-33.2-145.6-30.6-168.5,20.4-222.2c66.4-71.5,166-99.6,240-63.8c46,20.4,94.5,130.2,240,536.2c102.1,280.9,183.9,523.5,183.9,538.8c0,17.9-28.1,58.7-63.8,91.9c-84.3,86.8-224.7,86.8-280.9,2.6l-40.8-61.3l-196.6,140.4c-464.7,331.9-812,508.1-1677.6,845.2c-646,252.8-926.9,344.7-1225.7,400.9C6023.9,5021.5,5566.9,5021.5,5395.8,4975.5z"/><path d="M5109.8,2590.6c-117.5-30.6-171.1-68.9-646-462.2c-623-515.8-924.3-750.7-1172-916.7c-385.6-260.5-500.5-306.4-926.9-372.8l-97-15.3V-999.5v-1825.7h298.8c263,0,316.6-7.7,464.7-66.4c206.8-84.3,574.5-158.3,1355.9-278.3c329.4-51.1,750.7-120,932-155.7c183.8-33.2,423.9-79.2,536.2-102.1c301.3-56.2,758.4-74.1,970.3-38.3c441.7,74,671.5,326.8,538.8,587.3c-35.7,68.9-186.4,214.5-286,275.8c-40.9,25.5-28.1,30.7,86.8,30.7c354.9,5.1,694.5,150.6,824.7,354.9c68.9,107.2,76.6,135.3,68.9,286c-12.8,204.3-68.9,324.3-219.6,472.4c-109.8,107.2-112.4,114.9-51.1,114.9c209.4,0,503,206.8,610.3,426.4c86.8,181.3,81.7,459.6-7.7,633.3c-81.7,155.7-150.6,224.7-301.3,291.1c-94.5,43.4-104.7,53.6-63.8,68.9c418.8,143,646,395.8,671.5,750.7c15.3,232.4-38.3,393.2-181.3,528.6c-176.2,171.1-173.6,168.5-873.3,188.9c-983.1,28.1-1156.7,79.2-1317.6,383c-132.8,247.7-459.6,515.8-755.8,620.5C5434.1,2595.7,5211.9,2616.2,5109.8,2590.6z"/><path d="M276.1,879.8c-17.9-33.2-25.5-689.4-25.5-1950.8c0-1807.8,2.6-1902.3,46-1940.6c40.9-38.3,132.8-43.4,778.8-43.4c628.1,0,735.4,5.1,768.6,40.8c35.7,35.7,40.9,245.1,40.9,1940.6c0,1264-7.7,1920.2-25.5,1953.4c-25.5,46-61.3,48.5-791.6,48.5C337.4,928.3,301.7,925.8,276.1,879.8z M1180.1-2161.3c79.2-28.1,168.5-166,168.5-255.4c0-181.3-194.1-314.1-372.8-255.4c-99.6,33.2-189,153.2-189,250.2C786.8-2225.1,993.7-2089.8,1180.1-2161.3z"/><path d="M3955.6-3507c-209.4-531.1-245.1-727.7-158.3-914.1c99.6-219.6,301.3-349.8,569.4-365.1c148.1-10.2,186.4-2.6,301.3,61.3c86.8,48.5,150.6,104.7,191.5,173.7c48.5,86.8,344.7,870.7,344.7,914.1c0,7.7-48.5,20.4-107.2,28.1c-61.3,10.2-332,51.1-602.6,94.5c-270.7,40.9-495.4,76.6-500.5,76.6C3988.8-3438,3973.5-3468.7,3955.6-3507z"/></g></g>
</svg>